<?xml version="1.0" encoding="UTF-8" standalone="no"?><!--
  - Copyright 2026 Maximilian Schwärzler
  -
  -    Licensed under the Apache License, Version 2.0 (the "License");
  -    you may not use this file except in compliance with the License.
  -    You may obtain a copy of the License at
  -
  -        http://www.apache.org/licenses/LICENSE-2.0
  -
  -    Unless required by applicable law or agreed to in writing, software
  -    distributed under the License is distributed on an "AS IS" BASIS,
  -    WITHOUT WARRANTIES OR CONDITIONS OF ANY KIND, either express or implied.
  -    See the License for the specific language governing permissions and
  -    limitations under the License.
  -->

<!-- Created with Inkscape (http://www.inkscape.org/) -->

<svg width="108" height="108" viewBox="0 0 960 960" version="1.1"
    xmlns="http://www.w3.org/2000/svg">
    <g id="background">
        <rect style="fill:#1560b3" id="background_color" width="960" height="960" x="0" y="0" />
    </g>
    <g id="foreground" transform="translate(273.6 273.6) scale(0.43)">
        <path id="icon"
            d="M200,840Q167,840 143.5,816.5Q120,793 120,760L120,200Q120,167 143.5,143.5Q167,120 200,120L760,120Q768,120 775,121.5Q782,123 789,126L715,200Q715,200 715,200Q715,200 715,200L200,200Q200,200 200,200Q200,200 200,200L200,760Q200,760 200,760Q200,760 200,760L760,760Q760,760 760,760Q760,760 760,760L760,494L840,414L840,760Q840,793 816.5,816.5Q793,840 760,840L200,840ZM461,680L235,454L291,398L461,568L828,201L885,256L461,680Z"
            style="fill:#ffffff" />
    </g>
</svg>
